<svg xmlns="http://www.w3.org/2000/svg" viewBox="0 0 512 512">
  <!-- Warsha favicon: prompt chevron + anvil on the light brand tile. -->
  <rect width="512" height="512" rx="112" fill="#F2F1F7"/>
  <g transform="translate(256 257) scale(1.2) translate(-256 -257)">
    <path d="M88 150 L238 257 L88 364 L88 312 L164 257 L88 202 Z" fill="#8B7CF6"/>
    <path d="M210 170 H374 L436 190 L434 196 Q390 214 360 218 L352 218 L344 252 L364 286 L386 286 L386 320 L406 320 L406 344 L214 344 L214 320 L234 320 L234 286 L256 286 L276 252 L268 218 L210 218 Z" fill="#6D4FD6"/>
  </g>
</svg>
